<?xml version="1.0" encoding="UTF-8"?>
<svg xmlns="http://www.w3.org/2000/svg" version="1.1" viewBox="0 0 420.8 329.7">
  <defs>
    <style>
      .cls-1 {
        opacity: .6;
      }

      .cls-1, .cls-2 {
        fill: #ebebeb;
      }

      .cls-1, .cls-3 {
        isolation: isolate;
      }

      .cls-4 {
        fill: #fff;
      }

      .cls-5 {
        fill: #f0f0f0;
      }

      .cls-6 {
        fill: #e0e0e0;
      }

      .cls-7 {
        fill: #ffd15b;
      }

      .cls-8 {
        fill: #f5f5f5;
      }

      .cls-3 {
        fill: #263238;
        opacity: .1;
      }

      .cls-9 {
        fill: #fafafa;
      }

      .cls-10 {
        fill: #e6e6e6;
      }
    </style>
  </defs>
  <!-- Generator: Adobe Illustrator 28.7.2, SVG Export Plug-In . SVG Version: 1.2.0 Build 154)  -->
  <g>
    <g id="Calque_1">
      <g id="Background_Complete">
        <path class="cls-2" d="M198.8,283.2H5.7c-3.2,0-5.7-2.6-5.7-5.7V6C0,2.9,2.6.3,5.7.3h193.1c3.1,0,5.7,2.6,5.7,5.7v271.4c0,3.1-2.6,5.7-5.7,5.7h0ZM5.7.6C2.7.6.2,3,.2,6v271.4c0,3,2.5,5.5,5.5,5.5h193.1c3,0,5.5-2.5,5.5-5.5V6c0-3-2.4-5.5-5.5-5.5,0,0-193.1,0-193.1,0Z"/>
        <path class="cls-2" d="M415.1,283.2h-193.1c-3.1,0-5.7-2.6-5.7-5.7V6c0-3.2,2.6-5.7,5.7-5.7h193.1c3.1,0,5.7,2.6,5.7,5.7v271.4c0,3.1-2.6,5.7-5.7,5.7h0ZM222,.6c-3,0-5.5,2.4-5.5,5.5v271.4c0,3,2.4,5.5,5.5,5.5h193.1c3,0,5.5-2.5,5.5-5.5V6c0-3-2.5-5.5-5.5-5.5,0,0-193.1,0-193.1,0Z"/>
        <rect class="cls-10" x="63.1" y="21.5" width="291.8" height="136.5"/>
        <rect class="cls-5" x="65.1" y="21.5" width="294.1" height="136.5"/>
        <rect class="cls-10" x="63.1" y="158.1" width="291.8" height="7"/>
        <rect class="cls-5" x="72.5" y="158.1" width="294.1" height="7"/>
        <rect class="cls-9" x="71.3" y="27.7" width="281.8" height="124.2"/>
        <polygon class="cls-4" points="101.5 151.9 118.7 27.7 145.4 27.7 128.3 151.9 101.5 151.9"/>
        <path class="cls-5" d="M74.1,145.8c-.2,0-.4-.2-.4-.4V31.7c0-.2.2-.4.4-.4s.4.2.4.4v113.6c0,.2-.2.4-.4.4Z"/>
        <polygon class="cls-4" points="134 151.9 151.1 27.7 161.5 27.7 144.4 151.9 134 151.9"/>
        <rect class="cls-10" x="352.3" y="27.7" width=".8" height="124.2"/>
        <polygon class="cls-1" points="360.7 37 68.9 37 68.4 30.1 360.2 30.1 360.7 37"/>
        <polygon class="cls-1" points="360.7 48.3 68.9 48.3 68.4 41.4 360.2 41.4 360.7 48.3"/>
        <polygon class="cls-1" points="360.7 59.5 68.9 59.5 68.4 52.7 360.2 52.7 360.7 59.5"/>
        <polygon class="cls-1" points="360.7 70.8 68.9 70.8 68.4 64 360.2 64 360.7 70.8"/>
        <polygon class="cls-1" points="360.7 82.1 68.9 82.1 68.4 75.3 360.2 75.3 360.7 82.1"/>
        <polygon class="cls-1" points="360.7 93.4 68.9 93.4 68.4 86.6 360.2 86.6 360.7 93.4"/>
        <rect class="cls-10" x="356.3" y="162.4" width="44.5" height="135.4"/>
        <polygon class="cls-9" points="388.9 297.8 400.8 297.8 400.8 279.1 376.4 279.1 388.9 297.8"/>
        <rect class="cls-10" x="234.9" y="162.4" width="44.5" height="135.4"/>
        <rect class="cls-9" x="269" y="162.4" width="131.8" height="129"/>
        <polygon class="cls-9" points="280.9 297.8 269 297.8 269 279.1 293.4 279.1 280.9 297.8"/>
        <rect class="cls-5" x="278.2" y="210.4" width="113.3" height="32.3"/>
        <rect class="cls-5" x="278.2" y="249.6" width="113.3" height="32.3"/>
        <path class="cls-9" d="M296,207.6h77.7v1.6c0,2.6-2.1,4.7-4.7,4.7h-68.4c-2.6,0-4.7-2.1-4.7-4.7v-1.6h0Z"/>
        <rect class="cls-5" x="278.2" y="171.2" width="113.3" height="32.3"/>
        <path class="cls-9" d="M296,168.5h77.7v1.6c0,2.6-2.1,4.7-4.7,4.7h-68.4c-2.6,0-4.7-2.1-4.7-4.7v-1.6h0Z"/>
        <path class="cls-9" d="M296,246.8h77.7v1.6c0,2.6-2.1,4.7-4.7,4.7h-68.4c-2.6,0-4.7-2.1-4.7-4.7v-1.6h0Z"/>
        <path class="cls-10" d="M15.2,191.2c2.5-7.1,22,2.6,30,14.4,5.3,7.9,8.5,16.2,10,27.5-.2-12.9-.4-26.7-.6-39.7-1.6-3.2-5.3-10.8-7.9-16.7-8.8-19.8-29.7-27.2-37-39.7C.3,120.6.3,96,8.4,87.2c7-7.7,30.2,44.4,32.8,50.3,9,20,11.6,34.9,13.3,49.3-.2-12.2-.4-23.5-.5-32.2-.5-28.3-1.1-37.4-1.4-40.2-1-1.4-2.1-3-2.8-3.8-5.6-7.2-18.1-15.8-24.3-26.3-9.1-15.3-7.6-33.7-1.2-40.5,6.7-7.2,18.5,9.8,24.7,26.5,6.3,16.7,3.6,32.8,5.3,46.7.4,2.7.7,13.1,1.1,27.4,1.9-15.5,5.7-25.8,12.7-35.5,8.6-11.9,16.1-26.3,23.2-24.5,7.1,1.9,3.3,21-2.3,34.4-5,12-29.7,23.9-33.3,33.5.4,19.5.8,44.1,1.1,67.1,1.9-11.9.6-12.9,8.6-31,4.7-10.8,24.2-24.1,26.5-16.7,2.3,7.3-1.2,21.4-8.5,31.3-5.9,7.9-19,7.9-22.1,12.8-.7,1.1-3.1,5.5-4.4,8.1.3,28,.5,52.8.3,61.2h-1.3c0-2.1,0-16.4-.3-35.2-3.2-10.1-24.7-15.9-31.3-26.4-6.9-10.9-11.9-23.7-9-32.2h0Z"/>
        <path class="cls-5" d="M35.4,297.8h41.2c2.2,0,4.2-1.6,4.6-3.8l2.9-14.4H27.8l2.9,14.4c.4,2.2,2.4,3.8,4.6,3.8h0Z"/>
        <path class="cls-5" d="M26.7,285.1h58.7c1.4,0,2.6-1.1,2.8-2.5l1.2-10.7c.2-1.6-1.1-3.1-2.8-3.1H25.5c-1.7,0-2.9,1.4-2.8,3.1l1.2,10.7c.2,1.4,1.3,2.5,2.8,2.5Z"/>
        <rect class="cls-6" x="104.4" y="233" width="35.2" height="64.8"/>
        <polygon class="cls-10" points="229.4 297.8 111.5 297.8 99.1 209.9 217 209.9 229.4 297.8"/>
        <polygon class="cls-5" points="246.6 297.8 116.2 297.8 103.8 209.9 234.2 209.9 246.6 297.8"/>
        <polygon class="cls-4" points="128.9 284 118.5 223.6 221.4 223.6 231.9 284 128.9 284"/>
        <polygon class="cls-9" points="173.2 284 138.2 223.6 149.2 223.6 184.1 284 173.2 284"/>
        <polygon class="cls-9" points="188.8 284 153.8 223.6 172.5 223.6 207.5 284 188.8 284"/>
      </g>
      <g id="Shadow">
        <ellipse id="_x3C_Path_x3E_" class="cls-8" cx="211.8" cy="318.4" rx="193.9" ry="11.3"/>
      </g>
      <g id="Warning">
        <path class="cls-7" d="M80.2,151.2c-.2,0-.4-.2-.4-.4l-2.2-26.7c0-.2.2-.4.4-.5.2,0,.4.2.5.4l2.2,26.7c0,.2-.2.4-.4.5h0Z"/>
        <path class="cls-7" d="M81.6,167.1c-.2,0-.4-.2-.4-.4l-.7-8.1c0-.2.2-.4.4-.5.2,0,.4.1.5.4l.7,8.1c0,.2-.2.4-.4.5h0Z"/>
        <path class="cls-4" d="M306.5,243H100.1c-5.3,0-9.9-4.3-10.4-9.6l-11.6-139.8c-.4-5.3,3.5-9.6,8.8-9.6h206.5c5.3,0,9.9,4.3,10.4,9.6l11.6,139.8c.4,5.3-3.5,9.6-8.8,9.6h0Z"/>
        <path class="cls-7" d="M306.5,243.4H100.1c-5.5,0-10.3-4.5-10.8-9.9l-11.6-139.8c-.2-2.7.6-5.2,2.4-7.1,1.7-1.9,4.2-2.9,6.8-2.9h206.5c5.5,0,10.3,4.5,10.8,9.9l11.6,139.8c.2,2.7-.6,5.2-2.4,7.1-1.7,1.9-4.2,2.9-6.8,2.9h0ZM86.9,84.5c-2.4,0-4.6.9-6.2,2.7-1.6,1.7-2.4,4-2.2,6.5l11.6,139.8c.4,5.1,4.9,9.2,10,9.2h206.5c2.4,0,4.6-.9,6.2-2.7,1.6-1.7,2.4-4,2.2-6.5l-11.6-139.8c-.4-5.1-4.9-9.2-10-9.2,0,0-206.5,0-206.5,0Z"/>
        <path class="cls-7" d="M293.3,84.1H86.9c-5.3,0-9.2,4.3-8.8,9.6h225.6c-.4-5.3-5.1-9.6-10.4-9.6h0Z"/>
        <path class="cls-4" d="M91.7,88.9c0,1.1-.8,2.1-1.9,2.1s-2.1-.9-2.2-2.1.8-2.1,1.9-2.1,2.1.9,2.2,2.1Z"/>
        <path class="cls-4" d="M100.1,88.9c0,1.1-.8,2.1-1.9,2.1s-2.1-.9-2.2-2.1.8-2.1,1.9-2.1,2.1.9,2.2,2.1Z"/>
        <path class="cls-4" d="M108.5,88.9c0,1.1-.8,2.1-1.9,2.1s-2.1-.9-2.2-2.1c-.1-1.1.8-2.1,1.9-2.1s2.1.9,2.2,2.1Z"/>
        <path class="cls-5" d="M288.6,224.7H114.9c-4.2,0-7.9-3.4-8.2-7.6l-8.1-97.5c-.4-4.2,2.8-7.6,7-7.6h173.7c4.2,0,7.9,3.4,8.2,7.6l8.1,97.5c.4,4.2-2.8,7.6-7,7.6h0Z"/>
        <path class="cls-3" d="M234.9,129.1l-53.8,64.8c-7.4,8.9-2.7,22.4,8.6,24.9l87.3,18.9c12,2.6,22.1-9.3,17.5-20.8l-33.5-83.7c-4.3-10.8-18.7-13.1-26.1-4.1h0Z"/>
        <path class="cls-3" d="M115.2,138.1l-18.7,50.5c-2.5,6.7,2.9,13.8,10.1,13.1l54.7-5.4c7.7-.8,11.5-9.7,6.6-15.7l-36-45.1c-4.7-5.9-14.1-4.4-16.7,2.7h0Z"/>
        <path class="cls-7" d="M253.5,112.8l-50.3,73c-6.9,9.9-.8,23.6,11.2,25.2l92.5,12.3c12.8,1.7,22.4-11.6,16.6-23.2l-42.2-85.3c-5.5-11.1-20.8-12.2-27.8-2h0Z"/>
        <path class="cls-4" d="M216.6,204.5c-3.4-.4-6.3-2.6-7.8-5.7-1.5-3.1-1.4-6.5.5-9.2l50.4-73.2c1.8-2.7,4.9-4,8.3-3.5,3.4.4,6.3,2.6,7.8,5.7l42.3,85.6c1.5,3.1,1.4,6.5-.5,9.2s-4.9,4-8.3,3.5l-92.7-12.3Z"/>
        <path class="cls-7" d="M263.6,138.7l5.9.8c3.8.5,6.7,3.9,6.5,7.7l-.4,7.7c0,.3,0,.6-.1.8l-4.2,23.1c-.6,3.3-3.6,5.5-7.1,5h0c-3.5-.5-6.3-3.4-6.5-6.9l-1.7-23.9c0-.3,0-.6,0-.8l.4-7.7c.2-3.8,3.4-6.4,7.2-5.9h0ZM263.2,190.3l1.6.2c3.4.4,6,3.5,5.8,6.9h0c-.2,3.4-3.1,5.7-6.5,5.2l-1.6-.2c-3.4-.4-6-3.5-5.8-6.9h0c.2-3.4,3.1-5.7,6.5-5.2Z"/>
        <path class="cls-7" d="M134.5,123.9l-13.8,52.4c-1.8,6.9,4.2,13.4,11.3,12l53.6-10.4c7.5-1.5,10.5-10.7,5.2-16.2l-39.8-41.9c-5.2-5.5-14.5-3.2-16.5,4.2h0Z"/>
        <path class="cls-4" d="M131.8,184.1c-1.9.4-4-.3-5.4-1.8-1.4-1.5-2-3.6-1.5-5.5l13.9-52.5c.5-1.9,2-3.3,3.9-3.7,1.9-.4,4,.3,5.4,1.8l39.9,42c1.4,1.5,2,3.6,1.5,5.5-.5,1.9-2,3.3-3.9,3.6l-53.7,10.5h0Z"/>
        <path class="cls-7" d="M145.3,136.6l3.4-.7c2.2-.4,4.5,1,5.1,3.3l1.3,4.6c0,.2,0,.3.1.5l2.1,14.4c.3,2.1-1,3.9-3,4.3h0c-2,.4-4.1-.8-4.9-2.8l-5.5-13.7c0-.2-.1-.3-.2-.5l-1.3-4.6c-.6-2.2.7-4.4,2.9-4.8h0ZM154.9,166.9l.9-.2c2-.4,4,.9,4.6,2.9h0c.6,2-.6,3.9-2.6,4.3l-.9.2c-2,.4-4-.9-4.6-2.9h0c-.6-2,.6-3.9,2.6-4.3Z"/>
      </g>
    </g>
  </g>
</svg>